<?xml version="1.0" encoding="utf-8"?>
<!-- Generator: Adobe Illustrator 16.0.0, SVG Export Plug-In . SVG Version: 6.00 Build 0)  -->
<!DOCTYPE svg PUBLIC "-//W3C//DTD SVG 1.1//EN" "http://www.w3.org/Graphics/SVG/1.1/DTD/svg11.dtd">
<svg version="1.1" xmlns="http://www.w3.org/2000/svg" xmlns:xlink="http://www.w3.org/1999/xlink" x="0px" y="0px"
	 width="2777.444px" height="7042.591px" viewBox="1180.941 -91.079 2777.444 7042.591"
	 enable-background="new 1180.941 -91.079 2777.444 7042.591" xml:space="preserve">
<g id="Layer_2" display="none">
	<rect x="1180.941" y="-91.079" display="inline" stroke="#12100B" stroke-miterlimit="10" width="2777.444" height="7042.59"/>
</g>
<g id="svg1243" xmlns:dc="http://purl.org/dc/elements/1.1/" xmlns:inkscape="http://www.inkscape.org/namespaces/inkscape" xmlns:rdf="http://www.w3.org/1999/02/22-rdf-syntax-ns#" xmlns:cc="http://creativecommons.org/ns#" xmlns:sodipodi="http://sodipodi.sourceforge.net/DTD/sodipodi-0.dtd" xmlns:svg="http://www.w3.org/2000/svg" inkscape:export-ydpi="73.190002" inkscape:export-xdpi="73.190002" inkscape:export-filename="G:\Open Source Ecology\Germany\Publicity\Logo Design\OSHW-Plant-symmetric.png" sodipodi:version="0.32" sodipodi:docname="OSHW-Plant-symmetric.svg" inkscape:version="0.48.2 r9819">
	
		<sodipodi:namedview  bordercolor="#666666" inkscape:cy="212.51614" borderopacity="1.0" inkscape:cx="172.55221" showborder="true" showgrid="false" borderlayer="top" showguides="true" inkscape:zoom="0.70710678" pagecolor="#000000" id="base" inkscape:snap-global="false" inkscape:window-maximized="1" inkscape:guide-bbox="false" inkscape:showpageshadow="false" inkscape:grid-bbox="false" inkscape:grid-points="false" inkscape:current-layer="g4192" inkscape:window-y="-4" inkscape:pageshadow="2" inkscape:window-width="1366" inkscape:window-height="721" inkscape:pageopacity="0" inkscape:window-x="-4">
		<inkscape:grid  type="xygrid" enabled="true" empspacing="5" visible="true" id="grid3829" snapvisiblegridlinesonly="true">
			</inkscape:grid>
	</sodipodi:namedview>
	<polyline fill="none" points="1962.896,5805.416 1962.896,5664.104 3176.433,5664.104 3176.433,5805.416 	"/>
	<text transform="matrix(1 0 0 1 2358.2139 5708.2627)"><tspan x="0" y="0" fill="#76B82A" font-family="'LevenimMT'" font-size="60">OPEN SOURCE  </tspan><tspan x="11.235" y="96" fill="#7C7C7B" font-family="'LevenimMT'" font-size="80">GERMANY</tspan></text>
	<polyline fill="none" points="1943.403,5098.155 1943.403,4956.843 3195.925,4956.843 3195.925,5098.155 	"/>
	<text transform="matrix(1 0 0 1 2335.6904 4983.3389)"><tspan x="0" y="0" fill="#76B82A" font-family="'LevenimMT'" font-size="36">OPEN SOURCE HARDWARE  </tspan><tspan x="83.813" y="72" fill="#7C7C7B" font-family="'LevenimMT'" font-size="60">GERMANY</tspan></text>
	<g id="g3016_8_">
		
			<path id="path3_8_" sodipodi:nodetypes="ccssscccccssccccccccccccccsscccccccccccccccsccccc" inkscape:connector-curvature="0" fill="#646363" d="
			M2637.424,4749.333c0,0-28.898,35.725-30.471,48.761c-2.549,21.146-19.758,34.494-36.314,34.315
			c-18.822-0.203-34.638-13.813-38.264-34.315c-2.285-12.923-30.248-48.761-30.248-48.761l-25.238,28.132
			c-0.557,1.485-0.448,1.342-1.807,1.605l-30.248,5.618c-0.756,0.138-1.354,0.886-1.354,1.655v31.903
			c0,0.769,0.596,1.512,1.354,1.654l31,5.77c0.758,0.142,1.554,0.827,1.807,1.555l9.531,22.172c0.352,0.685,0.283,1.771-0.15,2.408
			l-18.059,26.284c-0.436,0.634-0.342,1.613,0.2,2.157l22.522,22.573c0.543,0.545,1.522,0.636,2.158,0.201l26.786-18.409
			c0.632-0.437,1.718-0.491,2.407-0.151l21.47,8.779c0.731,0.241,1.462,1.05,1.605,1.805l5.97,32.054
			c0.139,0.757,0.889,1.405,1.654,1.405h31.854c0.77,0,1.518-0.648,1.656-1.405l5.969-32.054c0.145-0.756,0.877-1.563,1.605-1.806
			l21.471-8.778c0.688-0.34,1.773-0.285,2.408,0.151l26.785,18.408c0.635,0.436,1.611,0.345,2.156-0.2l22.523-22.573
			c0.545-0.544,0.633-1.523,0.201-2.157l-18.059-26.284c-0.438-0.638-0.506-1.724-0.15-2.408l9.529-22.172
			c0.256-0.728,1.053-1.413,1.807-1.555l31.002-5.77c0.752-0.143,1.355-0.884,1.354-1.654v-31.903c0-0.77-0.602-1.518-1.354-1.656
			l-30.25-5.617c-2.012-0.389-1.014-0.196-1.805-1.605L2637.424,4749.333z"/>
	</g>
	<g id="g3016_7_">
		<path id="path3_7_" inkscape:connector-curvature="0" fill="#76B82A" d="M2596.891,4810.725
			c8.016-13.106,11.168-34.63-6.361-68.938c-9.971-19.515-15.18-30.566-17.898-36.785c-2.721-6.219-2.973-7.799-2.973-7.799
			s-0.242,1.581-2.963,7.8c-2.721,6.222-7.928,17.271-17.897,36.786c-17.528,34.309-14.374,55.831-6.36,68.937
			c8.014,13.106,21.354,17.278,27.227,17.278S2588.875,4823.829,2596.891,4810.725z"/>
	</g>
	<g id="g8_1_" transform="matrix(0.42665458,-0.05960064,0.05960064,0.42665458,-37.244922,100.93845)">
		<g id="g3016_1_">
			<path id="path3_2_" inkscape:connector-curvature="0" fill="#69B12E" d="M3921.807,13164.042l87.287-3.935
				c2.121-0.108,4.66-1.738,5.642-3.636l34.573-57.192c1.234-1.741,1.462-4.717,0.505-6.634l-39.477-79.169
				c-0.938-1.904-0.337-4.52,1.369-5.803l70.555-53.265c1.704-1.286,4.378-1.16,5.95,0.279l66.466,60.714
				c1.572,1.442,4.524,2.069,6.546,1.4l62.346-15.905c2.096-0.386,4.356-2.35,5.042-4.369l28.672-85.706
				c0.674-2.021,2.956-3.436,5.064-3.141l87.569,12.232c2.104,0.294,3.911,2.28,4.004,4.407l4.083,90.283
				c0.101,2.129,1.734,4.637,3.65,5.582l55.608,32.383c1.762,1.198,4.774,1.404,6.671,0.446l80.562-40.175
				c1.909-0.953,4.519-0.342,5.803,1.362l53.266,70.56c1.282,1.703,1.161,4.385-0.278,5.955l-59.665,65.321
				c-1.437,1.58-2.033,4.507-1.327,6.519l17.585,64.479c0.414,2.092,2.401,4.354,4.43,5.042l82.857,27.703
				c2.025,0.676,3.43,2.958,3.135,5.07l-12.233,87.555c-0.295,2.113-2.279,3.931-4.411,4.017l-85.137,3.85
				c-2.127,0.091-4.623,1.751-5.537,3.676l-34.949,61.098c-1.19,1.772-1.39,4.773-0.432,6.679l37.542,75.275
				c0.949,1.903,0.333,4.517-1.365,5.806l-70.567,53.263c-1.7,1.275-4.377,1.15-5.958-0.281l-61.002-55.736
				c-1.573-1.433-4.479-1.938-6.44-1.126l-31.977,11.73c0,0-27.343,13.915-81.692,9.03c0,0,3.266-46.465,4.418-53.578
				c6.057-1.118,37.748-11.141,67.496-47.354c29.753-36.22,48.366-99.929,9.876-211.001c-21.886-63.177-32.96-98.764-38.552-118.708
				c-5.596-19.944-5.692-24.823-5.692-24.823s-1.399,4.677-12.246,22.322c-10.843,17.648-31.245,48.842-69.612,103.603
				c-67.448,96.273-67.004,162.638-48.316,205.622c18.686,42.988,46.415,61.303,51.934,64.042
				c-0.805,6.822-10.69,52.373-10.69,52.373c-26.173-5.489-45.811-14.051-75.79-30.7c-10.895-7.933-27.541-20.046-27.541-20.046
				c-1.67-1.313-4.592-1.632-6.497-0.681l-73.95,36.89c-1.905,0.94-4.52,0.325-5.795-1.365l-53.275-70.559
				c-1.284-1.706-1.158-4.392,0.279-5.963l56.733-62.104c1.439-1.571,2.075-4.515,1.413-6.542l-16.866-68.331
				c-0.354-2.103-2.284-4.381-4.313-5.052l-80.825-27.033c-2.02-0.667-3.432-2.963-3.137-5.071l12.223-87.561
				C3917.702,13165.947,3919.683,13164.139,3921.807,13164.042"/>
		</g>
	</g>
	<polyline fill="none" points="1961.627,6670.074 1961.627,6528.762 3175.164,6528.762 3175.164,6670.074 	"/>
	<text transform="matrix(1 0 0 1 2196.5449 6572.9209)"><tspan x="0" y="0" fill="#76B82A" font-family="'LevenimMT'" font-size="60">OPEN SOURCE ECOLOGY  </tspan><tspan x="171.636" y="96" fill="#7C7C7B" font-family="'LevenimMT'" font-size="80">GERMANY</tspan></text>
	<g id="g8_5_" transform="matrix(0.42665458,-0.05960064,0.05960064,0.42665458,-37.244922,100.93845)">
		<g id="g3016_5_">
			<path id="path3_6_" inkscape:connector-curvature="0" fill="#646363" d="M4322.736,15274.633l-87.287,3.935
				c-2.121,0.108-4.661,1.739-5.643,3.636l-34.572,57.192c-1.234,1.741-1.462,4.718-0.505,6.634l39.477,79.169
				c0.938,1.904,0.337,4.52-1.369,5.804l-70.555,53.264c-1.703,1.286-4.378,1.16-5.95-0.279l-66.467-60.714
				c-1.572-1.442-4.524-2.069-6.544-1.4l-62.346,15.905c-2.096,0.386-4.357,2.35-5.042,4.369l-28.672,85.707
				c-0.673,2.021-2.957,3.435-5.064,3.141l-87.569-12.233c-2.104-0.294-3.912-2.279-4.003-4.407l-4.083-90.282
				c-0.101-2.129-1.735-4.638-3.652-5.583l-55.607-32.383c-1.762-1.198-4.776-1.404-6.671-0.446l-80.562,40.175
				c-1.909,0.953-4.518,0.342-5.802-1.362l-53.266-70.559c-1.282-1.704-1.161-4.386,0.278-5.956l59.666-65.321
				c1.436-1.58,2.032-4.507,1.327-6.519l-17.585-64.479c-0.415-2.093-2.401-4.355-4.429-5.043l-82.858-27.702
				c-2.025-0.677-3.43-2.959-3.135-5.071l12.233-87.555c0.295-2.112,2.279-3.931,4.411-4.017l85.137-3.85
				c2.128-0.09,4.623-1.751,5.538-3.676l34.948-61.098c1.191-1.772,1.39-4.772,0.432-6.678l-37.542-75.275
				c-0.95-1.904-0.333-4.516,1.365-5.807l70.568-53.262c1.7-1.276,4.377-1.151,5.958,0.28l61.001,55.737
				c1.574,1.432,4.479,1.937,6.442,1.125l268.385,37.488c1.671,1.313,4.593,1.632,6.497,0.681l73.95-36.889
				c1.905-0.94,4.521-0.326,5.794,1.364l53.276,70.559c1.283,1.706,1.157,4.392-0.279,5.963l-56.733,62.105
				c-1.439,1.57-2.075,4.515-1.413,6.541l16.867,68.331c0.354,2.103,2.282,4.381,4.313,5.052l80.825,27.033
				c2.019,0.667,3.431,2.963,3.137,5.071l-12.223,87.561C4326.841,15272.728,4324.859,15274.536,4322.736,15274.633"/>
		</g>
	</g>
	<g id="g8_7_" transform="matrix(0.42665458,-0.05960064,0.05960064,0.42665458,-37.244922,100.93845)">
		<g id="g3016_6_">
			<path id="path3_5_" inkscape:connector-curvature="0" fill="#76B82A" d="M3982.763,15292.99
				c6.86-2.28,53.254-19.649,89.232-81.271c35.982-61.633,61.54-167.528,26.734-346.884
				c-19.797-102.013-29.541-159.584-34.314-191.879c-4.781-32.296-4.524-40.297-4.524-40.297s-1.912,7.774-15.358,37.524
				c-13.451,29.765-38.593,82.451-85.59,175.137c-82.624,162.948-87.055,271.79-69.342,340.919
				c17.709,69.131,57.568,98.54,63.541,102.629c0,0,8.544,5.488,14.225,6.281
				C3973.044,15295.942,3982.763,15292.99,3982.763,15292.99z"/>
		</g>
	</g>
	<polyline fill="none" points="2978.194,1385.742 2978.194,1255.022 3801.656,1255.022 3801.656,1385.742 	"/>
	<text transform="matrix(1 0 0 1 2978.1943 1305.8147)"><tspan x="0" y="0" fill="#646363" font-family="'LucidaSansUnicode'" font-size="65.8803">OPEN HARDWARE  </tspan><tspan x="0" y="79.057" fill="#646363" font-family="'LucidaSansUnicode'" font-size="65.8803">GERMANY</tspan></text>
	<polyline fill="none" points="2966.554,2142.136 2966.554,2000.823 4219.074,2000.823 4219.074,2142.136 	"/>
	<text transform="matrix(1 0 0 1 2966.5557 2044.9827)"><tspan x="0" y="0" fill="#76B82A" font-family="'LevenimMT'" font-size="60">OPEN SOURCE ECOLOGY  </tspan><tspan x="0" y="96" fill="#7C7C7B" font-family="'LevenimMT'" font-size="80">GERMANY</tspan></text>
	<polyline fill="none" points="2498.454,688.841 2498.454,547.529 3711.991,547.529 3711.991,688.841 	"/>
	<text transform="matrix(1 0 0 1 2733.374 591.6877)"><tspan x="0" y="0" fill="#76B82A" font-family="'LevenimMT'" font-size="60">OPEN SOURCE ECOLOGY  </tspan><tspan x="171.636" y="96" fill="#7C7C7B" font-family="'LevenimMT'" font-size="80">GERMANY</tspan></text>
	<g id="g8_21_" transform="matrix(0.90551619,-0.12649423,0.12649423,0.90551619,-301.53618,-170.7273)">
		<g id="g3016_36_">
			
				<path id="path3_36_" sodipodi:nodetypes="ccssscccccssccccccccccccccsscccccccccccccccsccccc" inkscape:connector-curvature="0" fill="#646363" d="
				M3140.024,2819.874c-49.484-17.272-65.793,8.591-65.793,8.591c2.294,5.92,3.189,12.469,2.248,19.203
				c-2.948,21.102-22.497,35.858-43.597,32.91c-21.1-2.948-35.803-22.488-32.855-43.59c0.932-6.672,3.515-12.673,7.292-17.705
				c0,0-19.952-34.407-60.857-26.339c-2.451,0.484-4.978,8.667-4.978,8.667c-0.828,1.525-0.688,1.386-2.199,1.466l-33.615,1.509
				c-0.84,0.035-1.601,0.755-1.718,1.588l-4.828,34.558c-0.116,0.833,0.418,1.728,1.217,1.997l32.706,10.94
				c0.8,0.268,1.558,1.131,1.721,1.957l6.969,25.459c0.278,0.795,0.039,1.961-0.528,2.586l-23.538,25.739
				c-0.568,0.621-0.615,1.696-0.108,2.367l20.98,27.859c0.506,0.673,1.553,0.919,2.306,0.544l31.802-15.887
				c0.75-0.377,1.934-0.272,2.63,0.2l21.928,12.758c0.755,0.372,1.424,1.358,1.466,2.198l1.615,35.624
				c0.036,0.841,0.75,1.657,1.579,1.772l34.505,4.82c0.833,0.116,1.742-0.473,2.007-1.272l11.316-33.818
				c0.27-0.797,1.186-1.561,2.012-1.713l24.585-6.26c0.796-0.264,1.965-0.04,2.585,0.528l26.229,23.993
				c0.621,0.568,1.693,0.617,2.366,0.109l27.813-21.043c0.673-0.507,0.915-1.554,0.543-2.306l-15.584-31.204
				c-0.377-0.757-0.286-1.943,0.202-2.631l13.678-22.575c0.387-0.749,1.354-1.371,2.192-1.411l34.454-1.559
				c0.837-0.041,1.603-0.752,1.718-1.587l4.827-34.558c0.116-0.833-0.422-1.735-1.217-1.999l-31.916-10.662
				c-2.12-0.725-2.375-0.687-1.712-2.012C3142.475,2829.689,3140.637,2822.327,3140.024,2819.874L3140.024,2819.874z"/>
		</g>
	</g>
	<polyline fill="none" points="2970.56,2939.368 2970.56,2708.06 4223.08,2708.06 4223.08,2939.368 	"/>
	<text transform="matrix(1 0 0 1 2970.5596 2734.5549)"><tspan x="0" y="0" fill="#7C7C7B" font-family="'LevenimMT'" font-size="36">OPEN SOURCE ECOLOGY GERMANY</tspan><tspan x="0" y="43.199" fill="#7C7C7B" font-family="'LevenimMT'" font-size="36">HARDWARE DEVELOPMENT </tspan><tspan x="0" y="86.4" fill="#7C7C7B" font-family="'LevenimMT'" font-size="36">SUSTAINABLE LIVING </tspan><tspan x="0" y="129.6" fill="#7C7C7B" font-family="'LevenimMT'" font-size="36">FREE FOR ALL</tspan></text>
	<g id="g3016_34_">
		
			<path id="path3_34_" sodipodi:nodetypes="ccssscccccssccccccccccccccsscccccccccccccccsccccc" inkscape:connector-curvature="0" fill="#646363" d="
			M2898.503,2738.753c0,0-50.454,14.17-52.025,27.206c-2.549,21.146-19.758,34.494-36.314,34.315
			c-18.823-0.203-34.638-13.813-38.265-34.315c-2.285-12.923-52.075-27.106-52.075-27.106l-3.411,6.478
			c-0.557,1.485-0.447,1.342-1.806,1.605l-30.248,5.618c-0.756,0.138-1.354,0.886-1.354,1.655v31.903
			c0,0.769,0.597,1.512,1.354,1.654l31,5.77c0.758,0.142,1.554,0.827,1.806,1.555l9.531,22.172c0.353,0.685,0.283,1.771-0.15,2.408
			l-18.059,26.284c-0.436,0.634-0.342,1.613,0.201,2.157l22.522,22.573c0.543,0.545,1.522,0.636,2.157,0.201l26.787-18.409
			c0.631-0.437,1.717-0.491,2.407-0.151l21.47,8.779c0.73,0.241,1.461,1.05,1.605,1.805l5.969,32.054
			c0.139,0.757,0.889,1.405,1.654,1.405h31.854c0.77,0,1.518-0.648,1.656-1.405l5.969-32.054c0.144-0.756,0.876-1.563,1.605-1.806
			l21.47-8.778c0.688-0.34,1.774-0.285,2.408,0.151l26.786,18.408c0.634,0.436,1.611,0.345,2.156-0.2l22.523-22.573
			c0.545-0.544,0.632-1.523,0.2-2.157l-18.059-26.284c-0.438-0.638-0.505-1.724-0.15-2.408l9.53-22.172
			c0.256-0.728,1.053-1.413,1.807-1.555l31.001-5.77c0.753-0.143,1.356-0.884,1.354-1.654v-31.903c0-0.77-0.602-1.518-1.354-1.656
			l-30.249-5.617c-2.012-0.389-1.014-0.196-1.805-1.605L2898.503,2738.753z"/>
	</g>
	<g id="g3016_33_">
		<path id="path3_33_" inkscape:connector-curvature="0" fill="#76B82A" d="M2836.414,2778.59
			c8.016-13.106,11.168-34.63-6.361-68.938c-9.97-19.515-15.179-30.566-17.897-36.785c-2.721-6.219-2.973-7.799-2.973-7.799
			s-0.242,1.581-2.963,7.8c-2.721,6.222-7.928,17.271-17.897,36.786c-17.529,34.309-14.375,55.831-6.361,68.937
			c8.014,13.106,21.354,17.278,27.228,17.278S2828.399,2791.695,2836.414,2778.59z"/>
	</g>
	<g id="g8_18_" transform="matrix(0.42665458,-0.05960064,0.05960064,0.42665458,-37.244922,100.93845)">
		<g>
			<g id="g3016_31_">
				<path id="path3_31_" inkscape:connector-curvature="0" fill="#69B12E" d="M5833.415,3527.134l87.287-3.934
					c2.122-0.109,4.663-1.738,5.643-3.636l34.572-57.192c1.236-1.741,1.462-4.717,0.505-6.634l-39.475-79.168
					c-0.943-1.906-0.339-4.52,1.367-5.804l70.557-53.264c1.7-1.287,4.378-1.16,5.949,0.279l66.465,60.714
					c1.57,1.442,4.525,2.069,6.543,1.399l62.351-15.905c2.093-0.385,4.356-2.349,5.041-4.368l28.672-85.707
					c0.671-2.021,2.952-3.435,5.062-3.14l87.569,12.233c2.104,0.294,3.912,2.279,4.004,4.407l4.083,90.283
					c0.101,2.129,1.735,4.637,3.652,5.582l55.607,32.383c1.762,1.198,4.775,1.404,6.671,0.447l80.562-40.175
					c1.91-0.953,4.518-0.342,5.802,1.362l53.266,70.559c1.282,1.704,1.161,4.385-0.278,5.956l-59.666,65.321
					c-1.436,1.58-2.032,4.507-1.327,6.519l17.585,64.478c0.415,2.093,2.401,4.355,4.429,5.043l82.858,27.702
					c2.025,0.677,3.43,2.958,3.135,5.071l-12.233,87.555c-0.295,2.113-2.279,3.93-4.411,4.016l-85.137,3.85
					c-2.128,0.089-4.624,1.75-5.538,3.676l-34.949,61.097c-1.19,1.772-1.39,4.773-0.432,6.678l37.542,75.275
					c0.949,1.904,0.333,4.517-1.365,5.806l-70.568,53.262c-1.701,1.275-4.377,1.151-5.958-0.281l-61.002-55.737
					c-1.574-1.433-4.479-1.937-6.441-1.126l-31.976,11.731c0,0-27.343,13.915-81.692,9.03c0,0,3.266-46.466,4.417-53.579
					c6.057-1.118,37.748-11.14,67.498-47.354c29.752-36.22,48.365-99.928,9.875-211.001c-21.887-63.177-32.96-98.764-38.552-118.708
					c-5.595-19.944-5.692-24.824-5.692-24.824s-1.399,4.677-12.247,22.323c-10.842,17.648-31.246,48.842-69.609,103.603
					c-67.45,96.273-67.005,162.638-48.321,205.621c18.687,42.989,46.416,61.302,51.933,64.042
					c-0.802,6.823-10.69,52.373-10.69,52.373c-26.171-5.49-45.808-14.051-75.788-30.699c-10.897-7.933-27.539-20.045-27.539-20.045
					c-1.673-1.314-4.595-1.633-6.501-0.682l-73.948,36.89c-1.903,0.94-4.522,0.325-5.794-1.366l-53.276-70.558
					c-1.284-1.706-1.16-4.392,0.281-5.962l56.731-62.106c1.439-1.571,2.075-4.514,1.415-6.541l-16.869-68.331
					c-0.356-2.103-2.283-4.382-4.313-5.052l-80.823-27.033c-2.022-0.667-3.436-2.963-3.142-5.072l12.223-87.561
					C5829.311,3529.039,5831.292,3527.23,5833.415,3527.134"/>
			</g>
		</g>
		<g>
			<g id="g3016_30_">
				<path id="path3_30_" inkscape:connector-curvature="0" d="M5833.415,3527.134l87.287-3.934c2.122-0.109,4.663-1.738,5.643-3.636
					l34.572-57.192c1.236-1.741,1.462-4.717,0.505-6.634l-39.475-79.168c-0.943-1.906-0.339-4.52,1.367-5.804l70.557-53.264
					c1.7-1.287,4.378-1.16,5.949,0.279l66.465,60.714c1.57,1.442,4.525,2.069,6.543,1.399l62.351-15.905
					c2.093-0.385,4.356-2.349,5.041-4.368l28.672-85.707c0.671-2.021,2.952-3.435,5.062-3.14l87.569,12.233
					c2.104,0.294,3.912,2.279,4.004,4.407l4.083,90.283c0.101,2.129,1.735,4.637,3.652,5.582l55.607,32.383
					c1.762,1.198,4.775,1.404,6.671,0.447l80.562-40.175c1.91-0.953,4.518-0.342,5.802,1.362l53.266,70.559
					c1.282,1.704,1.161,4.385-0.278,5.956l-59.666,65.321c-1.436,1.58-2.032,4.507-1.327,6.519l17.585,64.478
					c0.415,2.093,2.401,4.355,4.429,5.043l82.858,27.702c2.025,0.677,3.43,2.958,3.135,5.071l-12.233,87.555
					c-0.295,2.113-2.279,3.93-4.411,4.016l-85.137,3.85c-2.128,0.089-4.624,1.75-5.538,3.676l-34.949,61.097
					c-1.19,1.772-1.39,4.773-0.432,6.678l37.542,75.275c0.949,1.904,0.333,4.517-1.365,5.806l-70.568,53.262
					c-1.701,1.275-4.377,1.151-5.958-0.281l-61.002-55.737c-1.574-1.433-4.479-1.937-6.441-1.126l-31.976,11.731
					c0,0-27.343,13.915-81.692,9.03c0,0,3.266-46.466,4.417-53.579c6.057-1.118,37.748-11.14,67.498-47.354
					c29.752-36.22,48.365-99.928,9.875-211.001c-21.887-63.177-32.96-98.764-38.552-118.708
					c-5.595-19.944-5.692-24.824-5.692-24.824s-1.399,4.677-12.247,22.323c-10.842,17.648-31.246,48.842-69.609,103.603
					c-67.45,96.273-67.005,162.638-48.321,205.621c18.687,42.989,46.416,61.302,51.933,64.042
					c-0.802,6.823-10.69,52.373-10.69,52.373c-26.171-5.49-45.808-14.051-75.788-30.699c-10.897-7.933-27.539-20.045-27.539-20.045
					c-1.673-1.314-4.595-1.633-6.501-0.682l-73.948,36.89c-1.903,0.94-4.522,0.325-5.794-1.366l-53.276-70.558
					c-1.284-1.706-1.16-4.392,0.281-5.962l56.731-62.106c1.439-1.571,2.075-4.514,1.415-6.541l-16.869-68.331
					c-0.356-2.103-2.283-4.382-4.313-5.052l-80.823-27.033c-2.022-0.667-3.436-2.963-3.142-5.072l12.223-87.561
					C5829.311,3529.039,5831.292,3527.23,5833.415,3527.134"/>
			</g>
		</g>
		<g>
			<g id="g3016_29_">
				<path id="path3_29_" inkscape:connector-curvature="0" d="M5833.415,3527.134l87.287-3.934c2.122-0.109,4.663-1.738,5.643-3.636
					l34.572-57.192c1.236-1.741,1.462-4.717,0.505-6.634l-39.475-79.168c-0.943-1.906-0.339-4.52,1.367-5.804l70.557-53.264
					c1.7-1.287,4.378-1.16,5.949,0.279l66.465,60.714c1.57,1.442,4.525,2.069,6.543,1.399l62.351-15.905
					c2.093-0.385,4.356-2.349,5.041-4.368l28.672-85.707c0.671-2.021,2.952-3.435,5.062-3.14l87.569,12.233
					c2.104,0.294,3.912,2.279,4.004,4.407l4.083,90.283c0.101,2.129,1.735,4.637,3.652,5.582l55.607,32.383
					c1.762,1.198,4.775,1.404,6.671,0.447l80.562-40.175c1.91-0.953,4.518-0.342,5.802,1.362l53.266,70.559
					c1.282,1.704,1.161,4.385-0.278,5.956l-59.666,65.321c-1.436,1.58-2.032,4.507-1.327,6.519l17.585,64.478
					c0.415,2.093,2.401,4.355,4.429,5.043l82.858,27.702c2.025,0.677,3.43,2.958,3.135,5.071l-12.233,87.555
					c-0.295,2.113-2.279,3.93-4.411,4.016l-85.137,3.85c-2.128,0.089-4.624,1.75-5.538,3.676l-34.949,61.097
					c-1.19,1.772-1.39,4.773-0.432,6.678l37.542,75.275c0.949,1.904,0.333,4.517-1.365,5.806l-70.568,53.262
					c-1.701,1.275-4.377,1.151-5.958-0.281l-61.002-55.737c-1.574-1.433-4.479-1.937-6.441-1.126l-31.976,11.731
					c0,0-27.343,13.915-81.692,9.03c0,0,3.266-46.466,4.417-53.579c6.057-1.118,37.748-11.14,67.498-47.354
					c29.752-36.22,48.365-99.928,9.875-211.001c-21.887-63.177-32.96-98.764-38.552-118.708
					c-5.595-19.944-5.692-24.824-5.692-24.824s-1.399,4.677-12.247,22.323c-10.842,17.648-31.246,48.842-69.609,103.603
					c-67.45,96.273-67.005,162.638-48.321,205.621c18.687,42.989,46.416,61.302,51.933,64.042
					c-0.802,6.823-10.69,52.373-10.69,52.373c-26.171-5.49-45.808-14.051-75.788-30.699c-10.897-7.933-27.539-20.045-27.539-20.045
					c-1.673-1.314-4.595-1.633-6.501-0.682l-73.948,36.89c-1.903,0.94-4.522,0.325-5.794-1.366l-53.276-70.558
					c-1.284-1.706-1.16-4.392,0.281-5.962l56.731-62.106c1.439-1.571,2.075-4.514,1.415-6.541l-16.869-68.331
					c-0.356-2.103-2.283-4.382-4.313-5.052l-80.823-27.033c-2.022-0.667-3.436-2.963-3.142-5.072l12.223-87.561
					C5829.311,3529.039,5831.292,3527.23,5833.415,3527.134"/>
			</g>
		</g>
		<g>
			<g id="g3016_28_">
				<path id="path3_28_" inkscape:connector-curvature="0" fill="#76B82A" d="M5833.415,3527.134l87.287-3.934
					c2.122-0.109,4.663-1.738,5.643-3.636l34.572-57.192c1.236-1.741,1.462-4.717,0.505-6.634l-39.475-79.168
					c-0.943-1.906-0.339-4.52,1.367-5.804l70.557-53.264c1.7-1.287,4.378-1.16,5.949,0.279l66.465,60.714
					c1.57,1.442,4.525,2.069,6.543,1.399l62.351-15.905c2.093-0.385,4.356-2.349,5.041-4.368l28.672-85.707
					c0.671-2.021,2.952-3.435,5.062-3.14l87.569,12.233c2.104,0.294,3.912,2.279,4.004,4.407l4.083,90.283
					c0.101,2.129,1.735,4.637,3.652,5.582l55.607,32.383c1.762,1.198,4.775,1.404,6.671,0.447l80.562-40.175
					c1.91-0.953,4.518-0.342,5.802,1.362l53.266,70.559c1.282,1.704,1.161,4.385-0.278,5.956l-59.666,65.321
					c-1.436,1.58-2.032,4.507-1.327,6.519l17.585,64.478c0.415,2.093,2.401,4.355,4.429,5.043l82.858,27.702
					c2.025,0.677,3.43,2.958,3.135,5.071l-12.233,87.555c-0.295,2.113-2.279,3.93-4.411,4.016l-85.137,3.85
					c-2.128,0.089-4.624,1.75-5.538,3.676l-34.949,61.097c-1.19,1.772-1.39,4.773-0.432,6.678l37.542,75.275
					c0.949,1.904,0.333,4.517-1.365,5.806l-70.568,53.262c-1.701,1.275-4.377,1.151-5.958-0.281l-61.002-55.737
					c-1.574-1.433-4.479-1.937-6.441-1.126l-31.976,11.731c0,0-27.343,13.915-81.692,9.03c0,0,3.266-46.466,4.417-53.579
					c6.057-1.118,37.748-11.14,67.498-47.354c29.752-36.22,48.365-99.928,9.875-211.001c-21.887-63.177-32.96-98.764-38.552-118.708
					c-5.595-19.944-5.692-24.824-5.692-24.824s-1.399,4.677-12.247,22.323c-10.842,17.648-31.246,48.842-69.609,103.603
					c-67.45,96.273-67.005,162.638-48.321,205.621c18.687,42.989,46.416,61.302,51.933,64.042
					c-0.802,6.823-10.69,52.373-10.69,52.373c-26.171-5.49-45.808-14.051-75.788-30.699c-10.897-7.933-27.539-20.045-27.539-20.045
					c-1.673-1.314-4.595-1.633-6.501-0.682l-73.948,36.89c-1.903,0.94-4.522,0.325-5.794-1.366l-53.276-70.558
					c-1.284-1.706-1.16-4.392,0.281-5.962l56.731-62.106c1.439-1.571,2.075-4.514,1.415-6.541l-16.869-68.331
					c-0.356-2.103-2.283-4.382-4.313-5.052l-80.823-27.033c-2.022-0.667-3.436-2.963-3.142-5.072l12.223-87.561
					C5829.311,3529.039,5831.292,3527.23,5833.415,3527.134"/>
			</g>
		</g>
		<g>
			<g id="g3016_19_">
				
					<path id="path3_19_" inkscape:connector-curvature="0" fill="none" stroke="#12100B" stroke-width="5.6693" stroke-miterlimit="10" d="
					M5833.415,3527.134l87.287-3.934c2.122-0.109,4.663-1.738,5.643-3.636l34.572-57.192c1.236-1.741,1.462-4.717,0.505-6.634
					l-39.475-79.168c-0.943-1.906-0.339-4.52,1.367-5.804l70.557-53.264c1.7-1.287,4.378-1.16,5.949,0.279l66.465,60.714
					c1.57,1.442,4.525,2.069,6.543,1.399l62.351-15.905c2.093-0.385,4.356-2.349,5.041-4.368l28.672-85.707
					c0.671-2.021,2.952-3.435,5.062-3.14l87.569,12.233c2.104,0.294,3.912,2.279,4.004,4.407l4.083,90.283
					c0.101,2.129,1.735,4.637,3.652,5.582l55.607,32.383c1.762,1.198,4.775,1.404,6.671,0.447l80.562-40.175
					c1.91-0.953,4.518-0.342,5.802,1.362l53.266,70.559c1.282,1.704,1.161,4.385-0.278,5.956l-59.666,65.321
					c-1.436,1.58-2.032,4.507-1.327,6.519l17.585,64.478c0.415,2.093,2.401,4.355,4.429,5.043l82.858,27.702
					c2.025,0.677,3.43,2.958,3.135,5.071l-12.233,87.555c-0.295,2.113-2.279,3.93-4.411,4.016l-85.137,3.85
					c-2.128,0.089-4.624,1.75-5.538,3.676l-34.949,61.097c-1.19,1.772-1.39,4.773-0.432,6.678l37.542,75.275
					c0.949,1.904,0.333,4.517-1.365,5.806l-70.568,53.262c-1.701,1.275-4.377,1.151-5.958-0.281l-61.002-55.737
					c-1.574-1.433-4.479-1.937-6.441-1.126l-31.976,11.731c0,0-27.343,13.915-81.692,9.03c0,0,3.266-46.466,4.417-53.579
					c6.057-1.118,37.748-11.14,67.498-47.354c29.752-36.22,48.365-99.928,9.875-211.001c-21.887-63.177-32.96-98.764-38.552-118.708
					c-5.595-19.944-5.692-24.824-5.692-24.824s-1.399,4.677-12.247,22.323c-10.842,17.648-31.246,48.842-69.609,103.603
					c-67.45,96.273-67.005,162.638-48.321,205.621c18.687,42.989,46.416,61.302,51.933,64.042
					c-0.802,6.823-10.69,52.373-10.69,52.373c-26.171-5.49-45.808-14.051-75.788-30.699c-10.897-7.933-27.539-20.045-27.539-20.045
					c-1.673-1.314-4.595-1.633-6.501-0.682l-73.948,36.89c-1.903,0.94-4.522,0.325-5.794-1.366l-53.276-70.558
					c-1.284-1.706-1.16-4.392,0.281-5.962l56.731-62.106c1.439-1.571,2.075-4.514,1.415-6.541l-16.869-68.331
					c-0.356-2.103-2.283-4.382-4.313-5.052l-80.823-27.033c-2.022-0.667-3.436-2.963-3.142-5.072l12.223-87.561
					C5829.311,3529.039,5831.292,3527.23,5833.415,3527.134"/>
			</g>
		</g>
	</g>
	<g id="g8_17_" transform="matrix(0.42665458,-0.05960064,0.05960064,0.42665458,-37.244922,100.93845)">
		<g id="g3016_27_">
			<path id="path3_27_" inkscape:connector-curvature="0" fill="#69B12E" d="M6796.214,1573.276l87.287-3.934
				c2.121-0.109,4.66-1.739,5.642-3.636l34.573-57.192c1.234-1.741,1.462-4.717,0.505-6.633l-39.477-79.169
				c-0.938-1.905-0.337-4.52,1.369-5.803l70.554-53.265c1.704-1.286,4.378-1.16,5.951,0.28l66.466,60.714
				c1.572,1.442,4.524,2.07,6.545,1.4l62.347-15.905c2.096-0.385,4.356-2.349,5.042-4.368l28.672-85.707
				c0.673-2.021,2.956-3.435,5.064-3.14l87.569,12.233c2.104,0.294,3.912,2.279,4.003,4.407l4.083,90.283
				c0.101,2.129,1.735,4.637,3.652,5.582l55.607,32.383c1.762,1.198,4.775,1.404,6.671,0.447l80.562-40.175
				c1.91-0.953,4.518-0.342,5.802,1.362l53.266,70.559c1.282,1.703,1.161,4.385-0.278,5.956l-59.666,65.321
				c-1.436,1.58-2.032,4.507-1.327,6.519l17.584,64.478c0.415,2.093,2.402,4.355,4.43,5.043l82.858,27.702
				c2.025,0.677,3.43,2.958,3.135,5.071l-12.233,87.555c-0.295,2.113-2.279,3.93-4.411,4.016l-85.137,3.85
				c-2.128,0.09-4.624,1.751-5.538,3.676l-34.948,61.097c-1.191,1.772-1.39,4.773-0.432,6.678l37.542,75.275
				c0.95,1.904,0.333,4.517-1.365,5.806l-70.568,53.263c-1.7,1.275-4.377,1.151-5.958-0.281l-61.002-55.737
				c-1.573-1.433-4.479-1.937-6.441-1.126l-31.976,11.732c0,0-27.343,13.915-81.693,9.03c0,0,3.266-46.466,4.417-53.579
				c6.057-1.118,37.748-11.14,67.498-47.354c29.752-36.22,48.365-99.928,9.875-211.001c-21.887-63.177-32.96-98.765-38.552-118.708
				c-5.596-19.944-5.692-24.824-5.692-24.824s-1.399,4.677-12.247,22.323c-10.842,17.648-31.245,48.843-69.611,103.603
				c-67.449,96.274-67.005,162.638-48.317,205.622c18.685,42.988,46.415,61.303,51.933,64.042
				c-0.804,6.823-10.69,52.373-10.69,52.373c-26.173-5.49-45.811-14.051-75.79-30.7c-10.895-7.933-27.541-20.046-27.541-20.046
				c-1.67-1.314-4.592-1.633-6.497-0.681l-73.95,36.889c-1.905,0.94-4.52,0.325-5.794-1.366l-53.276-70.558
				c-1.284-1.706-1.158-4.392,0.279-5.962l56.733-62.105c1.439-1.571,2.075-4.515,1.413-6.541l-16.867-68.331
				c-0.354-2.103-2.283-4.382-4.313-5.052l-80.825-27.034c-2.019-0.667-3.431-2.963-3.137-5.071l12.223-87.561
				C6792.109,1575.181,6794.09,1573.373,6796.214,1573.276"/>
		</g>
	</g>
	<polyline fill="none" points="1760.848,1385.742 1760.848,1255.022 2584.31,1255.022 2584.31,1385.742 	"/>
	<text transform="matrix(1 0 0 1 1760.8478 1305.8147)"><tspan x="0" y="0" fill="#646363" font-family="'LucidaSansUnicode'" font-size="65.8803">OPEN SOURCE ECOLOGY  </tspan><tspan x="0" y="79.057" fill="#646363" font-family="'LucidaSansUnicode'" font-size="65.8803">GERMANY</tspan></text>
	<polyline fill="none" points="1751.345,2142.136 1751.345,2000.823 3003.866,2000.823 3003.866,2142.136 	"/>
	<text transform="matrix(1 0 0 1 1751.3448 2044.9827)"><tspan x="0" y="0" fill="#76B82A" font-family="'LevenimMT'" font-size="60">OPEN SOURCE ECOLOGY  </tspan><tspan x="0" y="96" fill="#7C7C7B" font-family="'LevenimMT'" font-size="80">GERMANY</tspan></text>
	<polyline fill="none" points="1405.269,688.841 1405.269,547.529 2618.806,547.529 2618.806,688.841 	"/>
	<text transform="matrix(1 0 0 1 1640.1866 591.6878)"><tspan x="0" y="0" fill="#76B82A" font-family="'LevenimMT'" font-size="60">OPEN SOURCE ECOLOGY  </tspan><tspan x="171.636" y="96" fill="#7C7C7B" font-family="'LevenimMT'" font-size="80">GERMANY</tspan></text>
	<g id="g8_14_" transform="matrix(0.90551619,-0.12649423,0.12649423,0.90551619,-301.53618,-170.7273)">
		<g id="g3016_24_">
			
				<path id="path3_24_" sodipodi:nodetypes="ccssscccccssccccccccccccccsscccccccccccccccsccccc" inkscape:connector-curvature="0" fill="#646363" d="
				M1823.704,2635.994l-65.793,8.591c2.294,5.92,3.189,12.469,2.248,19.203c-2.948,21.102-22.497,35.857-43.597,32.91
				c-21.1-2.948-35.803-22.488-32.855-43.59c0.932-6.672,3.515-12.673,7.292-17.705l-60.857-26.339l-4.978,8.667
				c-0.828,1.525-0.688,1.386-2.199,1.466l-33.615,1.509c-0.84,0.035-1.601,0.754-1.718,1.588l-4.828,34.558
				c-0.116,0.833,0.417,1.728,1.217,1.997l32.706,10.94c0.799,0.268,1.558,1.131,1.721,1.957l6.969,25.459
				c0.278,0.795,0.039,1.961-0.527,2.586l-23.538,25.739c-0.568,0.621-0.614,1.696-0.109,2.367l20.981,27.859
				c0.506,0.672,1.553,0.919,2.306,0.544l31.802-15.888c0.749-0.377,1.934-0.272,2.63,0.2l21.928,12.758
				c0.755,0.372,1.424,1.358,1.466,2.198l1.615,35.624c0.036,0.841,0.75,1.657,1.579,1.773l34.505,4.82
				c0.834,0.116,1.742-0.473,2.007-1.271l11.316-33.818c0.27-0.797,1.185-1.561,2.012-1.713l24.584-6.26
				c0.796-0.264,1.965-0.041,2.586,0.528l26.229,23.993c0.621,0.568,1.693,0.617,2.366,0.109l27.813-21.043
				c0.673-0.507,0.915-1.555,0.543-2.306l-15.584-31.204c-0.377-0.757-0.286-1.943,0.201-2.631l13.678-22.574
				c0.387-0.749,1.354-1.371,2.192-1.411l34.453-1.559c0.837-0.041,1.603-0.752,1.718-1.587l4.828-34.558
				c0.116-0.833-0.422-1.735-1.217-1.999l-31.916-10.662c-2.12-0.726-2.375-0.687-1.712-2.012l-2.451-9.816L1823.704,2635.994z"/>
		</g>
	</g>
	<g id="g8_13_" transform="matrix(0.42665458,-0.05960064,0.05960064,0.42665458,-37.244922,100.93845)">
		<g id="g3016_23_">
			<path id="path3_23_" inkscape:connector-curvature="0" fill="#76B82A" d="M3152.705,4874.556
				c4.607-0.849,35.712-7.495,58.346-35.048c22.637-27.557,36.796-76.025,7.516-160.529c-16.653-48.064-25.079-75.145-29.332-90.314
				c-4.258-15.171-4.33-18.884-4.33-18.884s-1.064,3.557-9.316,16.979c-8.253,13.43-23.772,37.161-52.959,78.822
				c-51.317,73.245-50.977,123.737-36.763,156.439c14.214,32.705,42.31,47.616,46.509,49.702c0,0,5.997,2.817,9.895,3.362
				S3152.705,4874.556,3152.705,4874.556z"/>
		</g>
	</g>
	<polyline fill="none" points="1753.345,2893.37 1753.345,2752.057 3005.866,2752.057 3005.866,2893.37 	"/>
	<text transform="matrix(1 0 0 1 1753.3448 2796.2163)"><tspan x="0" y="0" fill="#76B82A" font-family="'LevenimMT'" font-size="60">OPEN SOURCE ECOLOGY  </tspan><tspan x="0" y="96" fill="#7C7C7B" font-family="'LevenimMT'" font-size="80">GERMANY</tspan></text>
	<g id="g3016_22_">
		
			<path id="path3_22_" sodipodi:nodetypes="ccssscccccssccccccccccccccsscccccccccccccccsccccc" inkscape:connector-curvature="0" fill="#646363" d="
			M1685.294,2738.753c0,0-50.454,14.17-52.025,27.206c-2.549,21.146-19.758,34.494-36.314,34.315
			c-18.823-0.203-34.638-13.813-38.265-34.315c-2.285-12.923-52.075-27.106-52.075-27.106l-3.411,6.478
			c-0.557,1.485-0.447,1.342-1.806,1.605l-30.248,5.618c-0.756,0.138-1.354,0.886-1.354,1.655v31.903
			c0,0.769,0.597,1.512,1.354,1.654l31,5.77c0.758,0.142,1.554,0.827,1.806,1.555l9.531,22.172c0.353,0.685,0.283,1.771-0.15,2.408
			l-18.059,26.284c-0.436,0.634-0.342,1.613,0.201,2.157l22.522,22.573c0.543,0.545,1.522,0.636,2.157,0.201l26.787-18.409
			c0.631-0.437,1.717-0.491,2.407-0.151l21.47,8.779c0.73,0.241,1.461,1.05,1.605,1.805l5.969,32.054
			c0.139,0.757,0.889,1.405,1.654,1.405h31.854c0.77,0,1.518-0.648,1.656-1.405l5.969-32.054c0.144-0.756,0.876-1.563,1.605-1.806
			l21.47-8.778c0.688-0.34,1.774-0.285,2.408,0.151l26.786,18.408c0.634,0.436,1.611,0.345,2.156-0.2l22.523-22.573
			c0.545-0.544,0.632-1.523,0.2-2.157l-18.059-26.284c-0.438-0.638-0.505-1.724-0.15-2.408l9.53-22.172
			c0.256-0.728,1.053-1.413,1.807-1.555l31.001-5.77c0.753-0.143,1.356-0.884,1.354-1.654v-31.903c0-0.77-0.602-1.518-1.354-1.656
			l-30.249-5.617c-2.012-0.389-1.014-0.196-1.805-1.605L1685.294,2738.753z"/>
	</g>
	<g id="g3016_21_">
		<path id="path3_21_" inkscape:connector-curvature="0" fill="#76B82A" d="M1623.205,2778.59
			c8.016-13.106,11.168-34.63-6.361-68.938c-9.97-19.515-15.179-30.566-17.897-36.785c-2.721-6.219-2.973-7.799-2.973-7.799
			s-0.242,1.581-2.963,7.8c-2.721,6.222-7.928,17.271-17.897,36.786c-17.529,34.309-14.375,55.831-6.361,68.937
			c8.014,13.106,21.354,17.278,27.228,17.278S1615.191,2791.695,1623.205,2778.59z"/>
	</g>
	<g id="g8_11_" transform="matrix(0.42665458,-0.05960064,0.05960064,0.42665458,-37.244922,100.93845)">
		<g>
			<g id="g3016_15_">
				<path id="path3_15_" inkscape:connector-curvature="0" fill="#69B12E" d="M3034.793,3136.184l87.287-3.934
					c2.121-0.109,4.663-1.738,5.642-3.636l34.573-57.192c1.237-1.741,1.462-4.717,0.505-6.634l-39.475-79.168
					c-0.942-1.906-0.339-4.52,1.367-5.804l70.557-53.264c1.699-1.287,4.378-1.16,5.948,0.279l66.466,60.714
					c1.57,1.442,4.524,2.069,6.543,1.399l62.351-15.905c2.093-0.385,4.356-2.349,5.042-4.368l28.673-85.707
					c0.671-2.021,2.952-3.435,5.062-3.14l87.569,12.233c2.104,0.294,3.911,2.279,4.003,4.407l4.083,90.283
					c0.101,2.129,1.735,4.637,3.651,5.582l55.608,32.383c1.762,1.198,4.775,1.404,6.671,0.447l80.562-40.175
					c1.909-0.953,4.518-0.341,5.802,1.362l53.266,70.559c1.282,1.704,1.162,4.385-0.278,5.956l-59.666,65.321
					c-1.436,1.58-2.033,4.507-1.327,6.519l17.585,64.478c0.415,2.093,2.401,4.355,4.429,5.043l82.858,27.702
					c2.025,0.677,3.43,2.958,3.135,5.071l-12.233,87.555c-0.295,2.113-2.28,3.93-4.411,4.016l-85.137,3.85
					c-2.127,0.089-4.623,1.75-5.537,3.676l-34.949,61.097c-1.191,1.772-1.39,4.773-0.432,6.678l37.542,75.275
					c0.949,1.904,0.333,4.517-1.365,5.806l-70.568,53.262c-1.7,1.275-4.377,1.151-5.958-0.281l-61.002-55.737
					c-1.574-1.433-4.479-1.937-6.441-1.126l-31.976,11.731c0,0-27.343,13.915-81.693,9.03c0,0,3.266-46.466,4.417-53.579
					c6.057-1.118,37.748-11.14,67.497-47.354c29.752-36.22,48.366-99.928,9.876-211.001c-21.887-63.177-32.96-98.764-38.552-118.708
					c-5.596-19.944-5.692-24.824-5.692-24.824s-1.4,4.677-12.246,22.323c-10.843,17.648-31.245,48.842-69.61,103.603
					c-67.45,96.273-67.005,162.638-48.321,205.621c18.687,42.989,46.415,61.302,51.933,64.042
					c-0.802,6.823-10.69,52.373-10.69,52.373c-26.171-5.489-45.809-14.051-75.788-30.699c-10.897-7.933-27.539-20.045-27.539-20.045
					c-1.673-1.314-4.594-1.633-6.501-0.682l-73.948,36.89c-1.903,0.94-4.522,0.325-5.795-1.366l-53.275-70.558
					c-1.284-1.706-1.16-4.392,0.281-5.962l56.731-62.106c1.439-1.57,2.075-4.514,1.415-6.541l-16.868-68.331
					c-0.356-2.103-2.283-4.382-4.314-5.052l-80.823-27.033c-2.022-0.667-3.436-2.963-3.141-5.072l12.223-87.561
					C3030.689,3138.09,3032.67,3136.281,3034.793,3136.184"/>
			</g>
		</g>
		<g>
			<g id="g3016_14_">
				<path id="path3_14_" inkscape:connector-curvature="0" d="M3034.793,3136.184l87.287-3.934c2.121-0.109,4.663-1.738,5.642-3.636
					l34.573-57.192c1.237-1.741,1.462-4.717,0.505-6.634l-39.475-79.168c-0.942-1.906-0.339-4.52,1.367-5.804l70.557-53.264
					c1.699-1.287,4.378-1.16,5.948,0.279l66.466,60.714c1.57,1.442,4.524,2.069,6.543,1.399l62.351-15.905
					c2.093-0.385,4.356-2.349,5.042-4.368l28.673-85.707c0.671-2.021,2.952-3.435,5.062-3.14l87.569,12.233
					c2.104,0.294,3.911,2.279,4.003,4.407l4.083,90.283c0.101,2.129,1.735,4.637,3.651,5.582l55.608,32.383
					c1.762,1.198,4.775,1.404,6.671,0.447l80.562-40.175c1.909-0.953,4.518-0.341,5.802,1.362l53.266,70.559
					c1.282,1.704,1.162,4.385-0.278,5.956l-59.666,65.321c-1.436,1.58-2.033,4.507-1.327,6.519l17.585,64.478
					c0.415,2.093,2.401,4.355,4.429,5.043l82.858,27.702c2.025,0.677,3.43,2.958,3.135,5.071l-12.233,87.555
					c-0.295,2.113-2.28,3.93-4.411,4.016l-85.137,3.85c-2.127,0.089-4.623,1.75-5.537,3.676l-34.949,61.097
					c-1.191,1.772-1.39,4.773-0.432,6.678l37.542,75.275c0.949,1.904,0.333,4.517-1.365,5.806l-70.568,53.262
					c-1.7,1.275-4.377,1.151-5.958-0.281l-61.002-55.737c-1.574-1.433-4.479-1.937-6.441-1.126l-31.976,11.731
					c0,0-27.343,13.915-81.693,9.03c0,0,3.266-46.466,4.417-53.579c6.057-1.118,37.748-11.14,67.497-47.354
					c29.752-36.22,48.366-99.928,9.876-211.001c-21.887-63.177-32.96-98.764-38.552-118.708
					c-5.596-19.944-5.692-24.824-5.692-24.824s-1.4,4.677-12.246,22.323c-10.843,17.648-31.245,48.842-69.61,103.603
					c-67.45,96.273-67.005,162.638-48.321,205.621c18.687,42.989,46.415,61.302,51.933,64.042
					c-0.802,6.823-10.69,52.373-10.69,52.373c-26.171-5.489-45.809-14.051-75.788-30.699c-10.897-7.933-27.539-20.045-27.539-20.045
					c-1.673-1.314-4.594-1.633-6.501-0.682l-73.948,36.89c-1.903,0.94-4.522,0.325-5.795-1.366l-53.275-70.558
					c-1.284-1.706-1.16-4.392,0.281-5.962l56.731-62.106c1.439-1.57,2.075-4.514,1.415-6.541l-16.868-68.331
					c-0.356-2.103-2.283-4.382-4.314-5.052l-80.823-27.033c-2.022-0.667-3.436-2.963-3.141-5.072l12.223-87.561
					C3030.689,3138.09,3032.67,3136.281,3034.793,3136.184"/>
			</g>
		</g>
		<g>
			<g id="g3016_13_">
				<path id="path3_13_" inkscape:connector-curvature="0" d="M3034.793,3136.184l87.287-3.934c2.121-0.109,4.663-1.738,5.642-3.636
					l34.573-57.192c1.237-1.741,1.462-4.717,0.505-6.634l-39.475-79.168c-0.942-1.906-0.339-4.52,1.367-5.804l70.557-53.264
					c1.699-1.287,4.378-1.16,5.948,0.279l66.466,60.714c1.57,1.442,4.524,2.069,6.543,1.399l62.351-15.905
					c2.093-0.385,4.356-2.349,5.042-4.368l28.673-85.707c0.671-2.021,2.952-3.435,5.062-3.14l87.569,12.233
					c2.104,0.294,3.911,2.279,4.003,4.407l4.083,90.283c0.101,2.129,1.735,4.637,3.651,5.582l55.608,32.383
					c1.762,1.198,4.775,1.404,6.671,0.447l80.562-40.175c1.909-0.953,4.518-0.341,5.802,1.362l53.266,70.559
					c1.282,1.704,1.162,4.385-0.278,5.956l-59.666,65.321c-1.436,1.58-2.033,4.507-1.327,6.519l17.585,64.478
					c0.415,2.093,2.401,4.355,4.429,5.043l82.858,27.702c2.025,0.677,3.43,2.958,3.135,5.071l-12.233,87.555
					c-0.295,2.113-2.28,3.93-4.411,4.016l-85.137,3.85c-2.127,0.089-4.623,1.75-5.537,3.676l-34.949,61.097
					c-1.191,1.772-1.39,4.773-0.432,6.678l37.542,75.275c0.949,1.904,0.333,4.517-1.365,5.806l-70.568,53.262
					c-1.7,1.275-4.377,1.151-5.958-0.281l-61.002-55.737c-1.574-1.433-4.479-1.937-6.441-1.126l-31.976,11.731
					c0,0-27.343,13.915-81.693,9.03c0,0,3.266-46.466,4.417-53.579c6.057-1.118,37.748-11.14,67.497-47.354
					c29.752-36.22,48.366-99.928,9.876-211.001c-21.887-63.177-32.96-98.764-38.552-118.708
					c-5.596-19.944-5.692-24.824-5.692-24.824s-1.4,4.677-12.246,22.323c-10.843,17.648-31.245,48.842-69.61,103.603
					c-67.45,96.273-67.005,162.638-48.321,205.621c18.687,42.989,46.415,61.302,51.933,64.042
					c-0.802,6.823-10.69,52.373-10.69,52.373c-26.171-5.489-45.809-14.051-75.788-30.699c-10.897-7.933-27.539-20.045-27.539-20.045
					c-1.673-1.314-4.594-1.633-6.501-0.682l-73.948,36.89c-1.903,0.94-4.522,0.325-5.795-1.366l-53.275-70.558
					c-1.284-1.706-1.16-4.392,0.281-5.962l56.731-62.106c1.439-1.57,2.075-4.514,1.415-6.541l-16.868-68.331
					c-0.356-2.103-2.283-4.382-4.314-5.052l-80.823-27.033c-2.022-0.667-3.436-2.963-3.141-5.072l12.223-87.561
					C3030.689,3138.09,3032.67,3136.281,3034.793,3136.184"/>
			</g>
		</g>
		<g>
			<g id="g3016_12_">
				<path id="path3_12_" inkscape:connector-curvature="0" fill="#76B82A" d="M3034.793,3136.184l87.287-3.934
					c2.121-0.109,4.663-1.738,5.642-3.636l34.573-57.192c1.237-1.741,1.462-4.717,0.505-6.634l-39.475-79.168
					c-0.942-1.906-0.339-4.52,1.367-5.804l70.557-53.264c1.699-1.287,4.378-1.16,5.948,0.279l66.466,60.714
					c1.57,1.442,4.524,2.069,6.543,1.399l62.351-15.905c2.093-0.385,4.356-2.349,5.042-4.368l28.673-85.707
					c0.671-2.021,2.952-3.435,5.062-3.14l87.569,12.233c2.104,0.294,3.911,2.279,4.003,4.407l4.083,90.283
					c0.101,2.129,1.735,4.637,3.651,5.582l55.608,32.383c1.762,1.198,4.775,1.404,6.671,0.447l80.562-40.175
					c1.909-0.953,4.518-0.341,5.802,1.362l53.266,70.559c1.282,1.704,1.162,4.385-0.278,5.956l-59.666,65.321
					c-1.436,1.58-2.033,4.507-1.327,6.519l17.585,64.478c0.415,2.093,2.401,4.355,4.429,5.043l82.858,27.702
					c2.025,0.677,3.43,2.958,3.135,5.071l-12.233,87.555c-0.295,2.113-2.28,3.93-4.411,4.016l-85.137,3.85
					c-2.127,0.089-4.623,1.75-5.537,3.676l-34.949,61.097c-1.191,1.772-1.39,4.773-0.432,6.678l37.542,75.275
					c0.949,1.904,0.333,4.517-1.365,5.806l-70.568,53.262c-1.7,1.275-4.377,1.151-5.958-0.281l-61.002-55.737
					c-1.574-1.433-4.479-1.937-6.441-1.126l-31.976,11.731c0,0-27.343,13.915-81.693,9.03c0,0,3.266-46.466,4.417-53.579
					c6.057-1.118,37.748-11.14,67.497-47.354c29.752-36.22,48.366-99.928,9.876-211.001c-21.887-63.177-32.96-98.764-38.552-118.708
					c-5.596-19.944-5.692-24.824-5.692-24.824s-1.4,4.677-12.246,22.323c-10.843,17.648-31.245,48.842-69.61,103.603
					c-67.45,96.273-67.005,162.638-48.321,205.621c18.687,42.989,46.415,61.302,51.933,64.042
					c-0.802,6.823-10.69,52.373-10.69,52.373c-26.171-5.489-45.809-14.051-75.788-30.699c-10.897-7.933-27.539-20.045-27.539-20.045
					c-1.673-1.314-4.594-1.633-6.501-0.682l-73.948,36.89c-1.903,0.94-4.522,0.325-5.795-1.366l-53.275-70.558
					c-1.284-1.706-1.16-4.392,0.281-5.962l56.731-62.106c1.439-1.57,2.075-4.514,1.415-6.541l-16.868-68.331
					c-0.356-2.103-2.283-4.382-4.314-5.052l-80.823-27.033c-2.022-0.667-3.436-2.963-3.141-5.072l12.223-87.561
					C3030.689,3138.09,3032.67,3136.281,3034.793,3136.184"/>
			</g>
		</g>
	</g>
	<g id="g8_10_" transform="matrix(0.42665458,-0.05960064,0.05960064,0.42665458,-37.244922,100.93845)">
		<g id="g3016_11_">
			<path id="path3_11_" inkscape:connector-curvature="0" fill="#69B12E" d="M4283.033,1222.201l87.287-3.934
				c2.121-0.109,4.66-1.739,5.642-3.636l34.573-57.192c1.234-1.741,1.462-4.717,0.505-6.634l-39.477-79.169
				c-0.938-1.905-0.337-4.52,1.369-5.803l70.554-53.265c1.704-1.286,4.378-1.16,5.951,0.28l66.466,60.714
				c1.572,1.442,4.524,2.07,6.545,1.4l62.347-15.905c2.095-0.385,4.356-2.349,5.041-4.368l28.672-85.707
				c0.674-2.021,2.956-3.435,5.064-3.14l87.569,12.233c2.104,0.294,3.912,2.279,4.004,4.407l4.083,90.283
				c0.101,2.129,1.735,4.637,3.651,5.582l55.607,32.383c1.762,1.198,4.775,1.404,6.671,0.447L4865.72,1071
				c1.91-0.953,4.518-0.342,5.802,1.362l53.266,70.559c1.283,1.703,1.162,4.385-0.278,5.956l-59.666,65.321
				c-1.437,1.58-2.033,4.507-1.327,6.519l17.585,64.478c0.415,2.093,2.402,4.355,4.43,5.043l82.858,27.702
				c2.025,0.677,3.43,2.958,3.135,5.071l-12.233,87.555c-0.295,2.113-2.279,3.93-4.411,4.017l-85.137,3.85
				c-2.127,0.09-4.624,1.75-5.538,3.676l-34.949,61.097c-1.19,1.772-1.39,4.773-0.432,6.678l37.542,75.275
				c0.949,1.904,0.333,4.517-1.365,5.806l-70.568,53.263c-1.701,1.275-4.377,1.151-5.958-0.281l-61.002-55.737
				c-1.573-1.433-4.479-1.937-6.441-1.126l-31.976,11.732c0,0-25.438,0.271-79.787-4.613c0,0,6.914-72.583,8.066-79.696
				c6.057-1.118,25.519-12.748,55.268-48.961c8.5-10.346,18.678-50.614-5.187-119.479c-21.887-63.177-2.503-172.229-2.503-172.229
				s-52.328,57.573-90.695,112.333c-54.603,77.938-52.509,137.471-45.042,154.651c18.687,42.989,37.527,64.648,43.045,67.387
				c-0.804,6.823-14.338,78.49-14.338,78.49c-26.173-5.49-47.717-0.408-77.696-17.057c-10.895-7.933-27.541-20.046-27.541-20.046
				c-1.67-1.314-4.592-1.633-6.497-0.681l-73.95,36.889c-1.905,0.94-4.52,0.325-5.794-1.366l-53.275-70.558
				c-1.284-1.706-1.158-4.392,0.279-5.962l56.733-62.105c1.439-1.57,2.075-4.514,1.413-6.541l-16.866-68.331
				c-0.354-2.103-2.284-4.382-4.313-5.052l-80.825-27.034c-2.02-0.667-3.432-2.963-3.137-5.071l12.223-87.561
				C4278.929,1224.106,4280.909,1222.298,4283.033,1222.201"/>
		</g>
	</g>
	<polyline fill="none" points="1969.339,4461.254 1969.339,4319.942 3182.876,4319.942 3182.876,4461.254 	"/>
	<text transform="matrix(1 0 0 1 2204.2568 4364.1011)"><tspan x="0" y="0" fill="#76B82A" font-family="'LevenimMT'" font-size="60">OPEN SOURCE ECOLOGY  </tspan><tspan x="171.636" y="96" fill="#7C7C7B" font-family="'LevenimMT'" font-size="80">GERMANY</tspan></text>
	<g id="g8_9_" transform="matrix(0.42665458,-0.05960064,0.05960064,0.42665458,-37.244922,100.93845)">
		<g id="g3016_10_">
			<path id="path3_10_" inkscape:connector-curvature="0" fill="#646363" d="M5049.826,10199.14l-87.287,3.934
				c-2.121,0.109-4.66,1.739-5.642,3.637l-34.573,57.191c-1.234,1.741-1.462,4.718-0.505,6.634l39.477,79.169
				c0.938,1.905,0.337,4.52-1.369,5.804l-70.555,53.264c-1.704,1.287-4.378,1.16-5.951-0.279l-66.466-60.714
				c-1.572-1.442-4.524-2.069-6.545-1.399l-62.346,15.905c-2.095,0.385-4.356,2.349-5.042,4.368l-28.672,85.707
				c-0.674,2.021-2.957,3.435-5.065,3.141l-87.569-12.233c-2.104-0.294-3.912-2.278-4.004-4.407l-4.083-90.282
				c-0.101-2.129-1.734-4.638-3.651-5.583l-55.608-32.382c-1.762-1.199-4.775-1.405-6.671-0.447l-80.562,40.175
				c-1.909,0.953-4.518,0.342-5.802-1.362l-53.266-70.559c-1.282-1.703-1.162-4.385,0.278-5.956l59.666-65.321
				c1.437-1.58,2.033-4.507,1.327-6.519l-17.584-64.478c-0.415-2.093-2.402-4.355-4.43-5.044l-82.858-27.702
				c-2.025-0.677-3.43-2.958-3.135-5.071l12.233-87.555c0.295-2.112,2.279-3.93,4.411-4.016l85.137-3.851
				c2.127-0.09,4.623-1.751,5.537-3.676l34.949-61.098c1.19-1.772,1.39-4.772,0.432-6.678l-37.542-75.275
				c-0.949-1.904-0.333-4.517,1.365-5.806l70.568-53.263c1.7-1.275,4.377-1.151,5.958,0.28l61.002,55.737
				c1.574,1.433,83.179,84.552,124.767,91.192c43.955,7.02,154.651-50.947,156.556-51.898l73.95-36.889
				c1.905-0.94,4.52-0.325,5.795,1.365l53.275,70.558c1.284,1.706,1.158,4.392-0.279,5.963l-56.733,62.105
				c-1.439,1.57-2.075,4.515-1.413,6.541l16.866,68.331c0.354,2.103,2.284,4.382,4.313,5.052l80.825,27.034
				c2.02,0.667,3.432,2.963,3.138,5.07l-12.223,87.562C5053.93,10197.234,5051.95,10199.043,5049.826,10199.14"/>
		</g>
	</g>
	<g id="g8_6_" transform="matrix(0.42665458,-0.05960064,0.05960064,0.42665458,-37.244922,100.93845)">
		<g id="g3016_9_">
			<path id="path3_37_" inkscape:connector-curvature="0" fill="#76B82A" d="M4876.331,10195.91
				c42.347-110.751-123.82-19.425-156.542-113.864c-33.451-96.563,238.83-113.899,80.763-428.085
				c6.967,225.983-104.269,214.224-174.52,284.91c-126.996,127.782-71.435,297.64,47.823,337.143
				C4730.227,10294.686,4840.818,10288.79,4876.331,10195.91z"/>
		</g>
	</g>
	<g id="g3016_38_">
		
			<path id="path3_38_" sodipodi:nodetypes="ccssscccccssccccccccccccccsscccccccccccccccsccccc" inkscape:connector-curvature="0" fill="#646363" d="
			M1720.476,3330.338c0,0-37.842,10.627-39.02,20.406c-1.912,15.857-14.818,25.867-27.236,25.734
			c-14.116-0.152-25.979-10.359-28.697-25.734c-1.714-9.693-39.057-20.332-39.057-20.332l-2.56,4.859
			c-0.416,1.113-0.334,1.004-1.354,1.203l-22.687,4.215c-0.566,0.102-1.015,0.664-1.015,1.242v23.926
			c0,0.578,0.446,1.133,1.015,1.24l23.25,4.328c0.568,0.107,1.165,0.619,1.355,1.166l7.148,16.629
			c0.264,0.514,0.211,1.328-0.114,1.805l-13.544,19.715c-0.325,0.475-0.255,1.211,0.152,1.617l16.891,16.93
			c0.408,0.408,1.142,0.477,1.619,0.15l20.089-13.807c0.475-0.326,1.289-0.367,1.806-0.113l16.104,6.584
			c0.548,0.182,1.096,0.787,1.204,1.354l4.477,24.041c0.103,0.568,0.665,1.055,1.239,1.055h23.892c0.577,0,1.138-0.486,1.242-1.055
			l4.477-24.041c0.108-0.566,0.656-1.172,1.204-1.354l16.102-6.584c0.516-0.254,1.332-0.213,1.808,0.113l20.089,13.807
			c0.475,0.326,1.209,0.258,1.617-0.15l16.893-16.93c0.408-0.406,0.475-1.143,0.149-1.617l-13.544-19.715
			c-0.328-0.477-0.378-1.291-0.111-1.805l7.146-16.629c0.192-0.547,0.79-1.059,1.355-1.166l23.25-4.328
			c0.565-0.107,1.018-0.662,1.017-1.24v-23.926c0-0.578-0.451-1.141-1.017-1.242l-22.686-4.215c-1.51-0.293-0.761-0.146-1.354-1.203
			L1720.476,3330.338z"/>
	</g>
	<g id="g3016_37_">
		<path id="path3_9_" inkscape:connector-curvature="0" fill="#76B82A" d="M1673.909,3360.215c6.012-9.83,8.376-25.971-4.772-51.703
			c-7.477-14.637-11.384-22.925-13.423-27.589c-2.04-4.664-2.229-5.849-2.229-5.849s-0.182,1.185-2.223,5.849
			c-2.041,4.667-5.945,12.954-13.424,27.591c-13.146,25.73-10.781,41.871-4.77,51.701c6.009,9.83,16.016,12.959,20.42,12.959
			S1667.898,3370.045,1673.909,3360.215z"/>
	</g>
	<g id="g3016_40_">
		
			<path id="path3_40_" sodipodi:nodetypes="ccssscccccssccccccccccccccsscccccccccccccccsccccc" inkscape:connector-curvature="0" fill="#646363" d="
			M2292.893,3318.076c0,0-25.228,7.085-26.013,13.604c-1.274,10.572-9.879,17.246-18.157,17.157
			c-9.411-0.102-17.319-6.907-19.132-17.157c-1.143-6.462-26.038-13.554-26.038-13.554l-1.706,3.239
			c-0.277,0.742-0.223,0.67-0.902,0.803l-15.124,2.809c-0.378,0.068-0.677,0.443-0.677,0.828v15.951
			c0,0.385,0.298,0.756,0.677,0.827l15.5,2.885c0.379,0.071,0.776,0.413,0.903,0.777l4.766,11.086
			c0.176,0.343,0.141,0.886-0.076,1.204l-9.029,13.143c-0.217,0.316-0.17,0.807,0.102,1.078l11.261,11.287
			c0.271,0.271,0.761,0.317,1.079,0.1l13.393-9.204c0.316-0.218,0.859-0.245,1.204-0.075l10.735,4.389
			c0.365,0.121,0.73,0.525,0.803,0.902l2.984,16.027c0.068,0.379,0.443,0.703,0.826,0.703h15.928c0.385,0,0.759-0.324,0.828-0.703
			l2.984-16.027c0.072-0.377,0.438-0.781,0.803-0.902l10.734-4.389c0.344-0.17,0.888-0.143,1.205,0.075l13.393,9.204
			c0.316,0.218,0.806,0.172,1.078-0.1l11.262-11.287c0.272-0.271,0.316-0.762,0.1-1.078l-9.029-13.143
			c-0.219-0.318-0.252-0.861-0.074-1.204l4.765-11.086c0.128-0.364,0.526-0.706,0.903-0.777l15.5-2.885
			c0.377-0.071,0.679-0.442,0.678-0.827v-15.951c0-0.385-0.301-0.76-0.678-0.828l-15.124-2.809
			c-1.006-0.195-0.507-0.099-0.902-0.803L2292.893,3318.076z"/>
	</g>
	<g id="g3016_39_">
		<path id="path3_39_" inkscape:connector-curvature="0" fill="#76B82A" d="M2261.849,3337.994
			c4.008-6.553,5.584-17.314-3.182-34.469c-4.984-9.758-7.589-15.283-8.948-18.393c-1.36-3.109-1.486-3.899-1.486-3.899
			s-0.121,0.79-1.481,3.899c-1.36,3.111-3.964,8.637-8.949,18.394c-8.764,17.154-7.188,27.915-3.18,34.468
			c4.006,6.554,10.677,8.64,13.613,8.64S2257.841,3344.546,2261.849,3337.994z"/>
	</g>
	<g id="g3016_42_">
		
			<path id="path3_42_" sodipodi:nodetypes="ccssscccccssccccccccccccccsscccccccccccccccsccccc" inkscape:connector-curvature="0" fill="#646363" d="
			M3093.811,3343.145c0,0-12.614,3.542-13.007,6.802c-0.638,5.286-4.939,8.623-9.079,8.578c-4.705-0.051-8.659-3.453-9.565-8.578
			c-0.571-3.23-13.019-6.777-13.019-6.777l-0.854,1.62c-0.139,0.371-0.111,0.335-0.451,0.401l-4.518,1.404
			c-0.188,0.034-0.338,0.222-0.338,0.414v7.976c0,0.192,0.148,0.378,0.338,0.413l4.705,1.443c0.189,0.035,0.389,0.206,0.452,0.389
			l2.383,5.543c0.088,0.171,0.07,0.442-0.038,0.602l-2.197,4.255c-0.108,0.158-0.085,0.403,0.051,0.539l5.63,5.644
			c0.137,0.136,0.381,0.158,0.54,0.05l4.379-2.286c0.158-0.108,0.43-0.122,0.602-0.037l5.368,2.194
			c0.183,0.061,0.365,0.263,0.401,0.451l1.492,4.821c0.034,0.189,0.222,0.352,0.413,0.352h7.964c0.192,0,0.379-0.162,0.414-0.352
			l1.492-4.821c0.036-0.188,0.219-0.391,0.401-0.451l5.367-2.194c0.172-0.085,0.444-0.071,0.603,0.037l4.816,2.723
			c0.158,0.108,0.403,0.086,0.539-0.05l5.631-5.644c0.136-0.136,0.158-0.381,0.05-0.539l-2.635-4.691
			c-0.109-0.159-0.126-0.431-0.037-0.602l2.382-5.543c0.064-0.183,0.264-0.354,0.452-0.389l4.953-1.443
			c0.188-0.035,0.339-0.221,0.339-0.413v-7.976c0-0.192-0.15-0.38-0.339-0.414l-4.765-1.404c-0.504-0.098-0.254-0.049-0.451-0.401
			L3093.811,3343.145z"/>
	</g>
	<g id="g3016_41_">
		<path id="path3_41_" inkscape:connector-curvature="0" fill="#76B82A" d="M3078.288,3353.104
			c2.004-3.276,2.792-8.657-1.591-17.234c-2.492-4.879-3.795-7.642-4.475-9.196s-0.742-1.949-0.742-1.949s-0.061,0.395-0.741,1.949
			c-0.681,1.556-1.981,4.318-4.475,9.197c-4.382,8.576-3.594,13.957-1.59,17.233c2.003,3.276,5.339,4.319,6.807,4.319
			S3076.284,3356.38,3078.288,3353.104z"/>
	</g>
	<polyline fill="none" points="2166.021,3497.657 2166.021,3415 2330.45,3415 2330.45,3497.657 	"/>
	<text transform="matrix(1 0 0 1 2185.2979 3448.3804)" fill="#76B82A" font-family="'LevenimMT'" font-size="45.3543">OSEG</text>
	<polyline fill="none" points="1775.552,3474.211 1775.552,3332.899 1951.068,3332.899 1951.068,3474.211 	"/>
	<text transform="matrix(1 0 0 1 1775.5519 3377.0581)" fill="#76B82A" font-family="'LevenimMT'" font-size="60">OSEG</text>
	<polyline fill="none" points="2554.221,3482.386 2554.221,3341.074 3806.741,3341.074 3806.741,3482.386 	"/>
	<text transform="matrix(1 0 0 1 3117.543 3374.4546)" fill="#76B82A" font-family="'LevenimMT'" font-size="45.3543">OSEG</text>
	<g id="g3016_26_">
		
			<path id="path3_26_" sodipodi:nodetypes="ccssscccccssccccccccccccccsscccccccccccccccsccccc" inkscape:connector-curvature="0" fill="#646363" d="
			M3407.811,3343.145c0,0-12.614,3.542-13.007,6.802c-0.638,5.286-4.939,8.623-9.079,8.578c-4.705-0.051-8.659-3.453-9.565-8.578
			c-0.571-3.23-13.019-6.777-13.019-6.777l10.082,25.017c0.158-0.108,0.43-0.122,0.602-0.037h23.313
			c0.172-0.085,0.444-0.071,0.603,0.037L3407.811,3343.145z"/>
	</g>
	<g id="g3016_25_">
		<path id="path3_25_" inkscape:connector-curvature="0" fill="#76B82A" d="M3392.288,3353.104
			c2.004-3.276,2.792-8.657-1.591-17.234c-2.492-4.879-3.795-7.642-4.475-9.196s-0.742-1.949-0.742-1.949s-0.061,0.395-0.741,1.949
			c-0.681,1.556-1.981,4.318-4.475,9.197c-4.382,8.576-3.594,13.957-1.59,17.233c2.003,3.276,5.339,4.319,6.807,4.319
			S3390.284,3356.38,3392.288,3353.104z"/>
	</g>
	<polyline fill="none" points="2868.221,3482.386 2868.221,3341.074 4120.741,3341.074 4120.741,3482.386 	"/>
	<text transform="matrix(1 0 0 1 3431.543 3374.4546)" fill="#76B82A" font-family="'LevenimMT'" font-size="45.3543">OSEG</text>
	<g id="g3016_51_">
		
			<path id="path3_51_" sodipodi:nodetypes="ccssscccccssccccccccccccccsscccccccccccccccsccccc" inkscape:connector-curvature="0" fill="#646363" d="
			M2749.3,3343.145c0,0-12.614,3.542-13.007,6.802c-0.638,5.286-4.939,8.623-9.079,8.578c-4.705-0.051-8.659-3.453-9.565-8.578
			c-0.571-3.23-13.019-6.777-13.019-6.777l-0.854,1.62c-0.139,0.371-0.111,0.335-0.451,0.401l-4.518,1.404
			c-0.188,0.034-0.338,0.222-0.338,0.414v7.976c0,0.192,0.148,0.378,0.338,0.413l4.705,1.443c0.189,0.035,0.389,0.206,0.452,0.389
			l2.383,5.543c0.088,0.171,0.07,0.442-0.038,0.602l-2.197,4.255c-0.108,0.158-0.085,0.403,0.051,0.539l5.63,5.644
			c0.137,0.136,0.381,0.158,0.54,0.05l4.379-2.286c0.158-0.108,0.43-0.122,0.602-0.037l5.368,2.194
			c0.183,0.061,0.365,0.263,0.401,0.451l1.492,4.821c0.034,0.189,0.222,0.352,0.413,0.352h7.964c0.192,0,0.379-0.162,0.414-0.352
			l1.492-4.821c0.036-0.188,0.219-0.391,0.401-0.451l5.367-2.194c0.172-0.085,0.444-0.071,0.603,0.037l4.816,2.723
			c0.158,0.108,0.403,0.086,0.539-0.05l5.631-5.644c0.136-0.136,0.158-0.381,0.05-0.539l-2.635-4.691
			c-0.109-0.159-0.126-0.431-0.037-0.602l2.382-5.543c0.064-0.183,0.264-0.354,0.452-0.389l4.953-1.443
			c0.188-0.035,0.339-0.221,0.339-0.413v-7.976c0-0.192-0.15-0.38-0.339-0.414l-4.765-1.404c-0.504-0.098-0.254-0.049-0.451-0.401
			L2749.3,3343.145z"/>
	</g>
	<g id="g3016_35_">
		<path id="path3_35_" inkscape:connector-curvature="0" fill="#76B82A" d="M2732.082,3350.106c1.506-2.46,2.097-6.501-1.194-12.942
			c-1.872-3.663-2.851-5.738-3.36-6.905c-0.512-1.167-0.558-1.464-0.558-1.464s-0.046,0.297-0.557,1.464
			c-0.512,1.167-1.487,3.242-3.36,6.905c-3.29,6.441-2.699,10.482-1.194,12.942c1.505,2.461,4.01,3.245,5.112,3.245
			C2728.072,3353.351,2730.577,3352.567,2732.082,3350.106z"/>
	</g>
	<polyline fill="none" points="2209.71,3482.386 2209.71,3341.074 3462.23,3341.074 3462.23,3482.386 	"/>
	<text transform="matrix(1 0 0 1 2773.0322 3374.4546)" fill="#76B82A" font-family="'LevenimMT'" font-size="45.3543">OSEG</text>
	<ellipse fill="#76B82A" cx="2809.184" cy="1958.555" rx="33.004" ry="35"/>
	<path fill="#76B82A" d="M2809.184,1843.472c0,52.784,32.875,80.044,32.875,115.083c-34.064,23.5-50.508,18.563-66.008,0
		C2776.051,1921.418,2809.184,1900.111,2809.184,1843.472z"/>
</g>
<g id="Layer_4">
	<path fill="#646363" d="M3385.481,3374.816c20.665,0,26.493-22.759,22.329-31.671c0,0-13.914,17.504-21.247,17.504
		s-15.833-12.666-17.833-13.916s-5.59-3.563-5.59-3.563C3356.98,3357.899,3370.066,3374.816,3385.481,3374.816z"/>
</g>
<g id="Layer_5">
	<path opacity="0.1" fill="#FFFFFF" d="M1744.241,1167.441c0,66.364-170.409,120.163-380.617,120.163
		s-120.036-77.322-120.036-143.687s-90.172-96.64,120.036-96.64S1744.241,1101.077,1744.241,1167.441z"/>
	<path opacity="0.08" fill="#FFFFFF" d="M2833.458,1884.928c0,121.04-123.364,219.163-275.54,219.163s2.582-141.026,2.582-262.066
		c0-83.738-128.463-176.26-2.582-176.26C2710.094,1665.765,2833.458,1763.888,2833.458,1884.928z"/>
	<path opacity="0.05" fill="#FFFFFF" d="M2172.579,189.929c0,121.04-178.603,219.163-398.92,219.163
		s-125.809-141.026-125.809-262.067s-94.508-176.259,125.809-176.259S2172.579,68.889,2172.579,189.929z"/>
</g>
<g id="Layer_3" display="none">
</g>
</svg>
