<?xml version="1.0" encoding="UTF-8" standalone="no"?>
<!-- Created with Inkscape (http://www.inkscape.org/) -->

<svg
   xmlns:dc="http://purl.org/dc/elements/1.1/"
   xmlns:cc="http://creativecommons.org/ns#"
   xmlns:rdf="http://www.w3.org/1999/02/22-rdf-syntax-ns#"
   xmlns:svg="http://www.w3.org/2000/svg"
   xmlns="http://www.w3.org/2000/svg"
   xmlns:sodipodi="http://sodipodi.sourceforge.net/DTD/sodipodi-0.dtd"
   xmlns:inkscape="http://www.inkscape.org/namespaces/inkscape"
   width="400"
   height="400"
   id="svg3196"
   version="1.1"
   inkscape:version="0.48.2 r9819"
   sodipodi:docname="oseg-final-logo.svg"
   inkscape:export-filename="G:\Open Source Ecology\Germany\Publicity\Logo Design\oseg-final-logo.png"
   inkscape:export-xdpi="73.190002"
   inkscape:export-ydpi="73.190002">
  <defs
     id="defs3198" />
  <sodipodi:namedview
     id="base"
     pagecolor="#ff28ff"
     bordercolor="#666666"
     borderopacity="1.0"
     inkscape:pageopacity="0"
     inkscape:pageshadow="2"
     inkscape:zoom="1.294989"
     inkscape:cx="119.57884"
     inkscape:cy="215.65268"
     inkscape:document-units="px"
     inkscape:current-layer="g3016_32_"
     showgrid="true"
     inkscape:window-width="1366"
     inkscape:window-height="721"
     inkscape:window-x="-4"
     inkscape:window-y="-4"
     inkscape:window-maximized="1"
     inkscape:snap-to-guides="true"
     inkscape:snap-grids="false">
    <inkscape:grid
       type="xygrid"
       id="grid3239"
       empspacing="5"
       visible="true"
       enabled="true"
       snapvisiblegridlinesonly="true" />
  </sodipodi:namedview>
  <metadata
     id="metadata3201">
    <rdf:RDF>
      <cc:Work
         rdf:about="">
        <dc:format>image/svg+xml</dc:format>
        <dc:type
           rdf:resource="http://purl.org/dc/dcmitype/StillImage" />
        <dc:title></dc:title>
      </cc:Work>
    </rdf:RDF>
  </metadata>
  <g
     inkscape:label="Layer 1"
     inkscape:groupmode="layer"
     id="layer1"
     transform="translate(0,-652.36217)">
    <g
       id="g46"
       transform="matrix(0.48547404,-0.06781731,0.06781731,0.48547404,-130.79135,752.73073)">
      <g
         id="g3016_32_">
        <path
           sodipodi:nodetypes="cccccccccccccccsccccccccccccccccccccccccccccccscsccccccccccccccccc"
           d="m 276.012,228.82799 93.291,-4.20699 c 2.267,-0.111 4.982,-1.855 6.03,-3.881 l 36.95,-61.13 c 1.323,-1.85799 1.563,-5.03899 0.539,-7.089 L 370.634,67.910008 c -1.009,-2.037 -0.363,-4.832 1.461,-6.204 l 75.41,-56.9279991 c 1.816,-1.374 4.678,-1.239 6.357,0.299 l 71.03799,64.8919991 c 1.677,1.539 4.836,2.209 6.99202,1.494 l 66.64099,-17 c 2.23599,-0.411 4.654,-2.509 5.38601,-4.666 l 30.64499,-91.603 c 0.71799,-2.16 3.15499,-3.671 5.40899,-3.356 l 93.594,13.074 c 2.248,0.314 4.181,2.436 4.27801,4.71 l 4.365,96.493 c 0.10801,2.275 1.85399,4.955 3.90399,5.964 L 805.544,109.69101 c 1.88499,1.28 5.10399,1.5 7.13199,0.479 L 898.778,67.229008 c 2.041,-1.018 4.83,-0.363 6.20099,1.456 L 961.91,144.098 c 1.37,1.82 1.24,4.687 -0.299,6.366 l -63.769,69.813 c -1.53499,1.69 -2.172,4.818 -1.418,6.96599 L 915.218,296.16 c 0.444,2.234 2.567,4.654 4.737,5.385 l 88.555,29.60901 c 2.164,0.72198 3.666,3.16498 3.351,5.41999 l -13.07652,93.57907 c -0.315,2.25501 -2.43597,4.199 -4.71297,4.29301 l -90.99297,4.116 c -2.27499,0.092 -4.942,1.868 -5.91899,3.92699 l -37.353,65.30001 c -1.271,1.89199 -1.48501,5.10099 -0.46101,7.13899 l 40.12401,80.453 c 1.01499,2.034 0.356,4.82401 -1.45801,6.20501 l -75.421,56.923 c -1.81899,1.36399 -4.67699,1.22899 -6.368,-0.29802 l -65.19699,-59.57098 c -1.68101,-1.53001 -4.78601,-2.074 -6.88501,-1.206 l -34.175,12.54 c 0,0 -28.68977,14.59981 -86.77477,9.37582 0,0 9.23032,-91.57467 10.40233,-98.79566 6.148,-1.13401 108.42145,-21.52253 122.64446,-123.33752 14.22301,-101.814 -98.07168,-224.59401 -98.95988,-224.71808 -0.82364,-0.11506 -142.25713,87.57744 -156.43114,189.04144 -14.17399,101.46499 78.287,149.36 83.89001,152.139 -0.81207,6.92799 -17.00502,97.923 -17.00502,97.923 -27.96999,-5.86301 -48.95699,-15.01401 -81.00099,-32.80801 -11.646,-8.48099 -29.432,-21.42799 -29.432,-21.42799 -1.78899,-1.402 -4.91099,-1.741 -6.94899,-0.72601 l -79.03401,39.42801 c -2.034,1.00199 -4.833,0.34599 -6.193,-1.464 l -56.94,-75.40901 c -1.372,-1.82499 -1.24,-4.694 0.3,-6.36999 L 369.115,446.44499 c 1.538,-1.67699 2.217,-4.82699 1.51,-6.98998 L 352.597,366.424 c -0.379,-2.25 -2.439,-4.68501 -4.611,-5.39901 l -86.38,-28.89198 c -2.162,-0.71302 -3.671,-3.17001 -3.357,-5.42201 l 13.063,-93.58501 c 0.313,-2.25798 2.431,-4.19498 4.7,-4.298"
           connector-curvature="0"
           id="path3_32_"
           inkscape:connector-curvature="0"
           style="fill:#69b12e" />
      </g>
    </g>
    <g
       id="g58"
       transform="matrix(0.42665458,-0.05960064,0.05960064,0.42665458,-102.14163,96.230543)">
      <g
         id="g3016_29_" />
    </g>
  </g>
</svg>
